<?xml version="1.0" encoding="UTF-8" standalone="no"?>
<!-- Created with Inkscape (http://www.inkscape.org/) -->

<svg
   width="86.62104mm"
   height="70.80291mm"
   viewBox="0 0 86.62104 70.80291"
   version="1.1"
   id="svg1"
   xml:space="preserve"
   inkscape:version="1.3.1 (9b9bdc1480, 2023-11-25, custom)"
   sodipodi:docname="hello.svg"
   xmlns:inkscape="http://www.inkscape.org/namespaces/inkscape"
   xmlns:sodipodi="http://sodipodi.sourceforge.net/DTD/sodipodi-0.dtd"
   xmlns:xlink="http://www.w3.org/1999/xlink"
   xmlns="http://www.w3.org/2000/svg"
   xmlns:svg="http://www.w3.org/2000/svg"><sodipodi:namedview
     id="namedview1"
     pagecolor="#ffffff"
     bordercolor="#000000"
     borderopacity="0.25"
     inkscape:showpageshadow="2"
     inkscape:pageopacity="0.0"
     inkscape:pagecheckerboard="0"
     inkscape:deskcolor="#d1d1d1"
     inkscape:document-units="mm"
     showguides="false"
     inkscape:zoom="1.4053899"
     inkscape:cx="326.24398"
     inkscape:cy="12.096287"
     inkscape:window-width="1850"
     inkscape:window-height="1136"
     inkscape:window-x="0"
     inkscape:window-y="0"
     inkscape:window-maximized="1"
     inkscape:current-layer="g1"><inkscape:page
       x="-1.6186756e-05"
       y="3.3374056e-06"
       width="86.62104"
       height="70.80291"
       id="page2"
       margin="0"
       bleed="0" /></sodipodi:namedview><defs
     id="defs1"><linearGradient
       x1="0"
       y1="0"
       x2="0"
       y2="100.00128"
       gradientUnits="userSpaceOnUse"
       id="linearGradient5"><stop
         style="stop-opacity:1;stop-color:#d98000"
         offset="0"
         id="stop1" /><stop
         style="stop-opacity:1;stop-color:#d98000"
         offset="0.25"
         id="stop2" /><stop
         style="stop-opacity:1;stop-color:#ecb300"
         offset="0.5"
         id="stop3" /><stop
         style="stop-opacity:1;stop-color:#ffe600"
         offset="0.75"
         id="stop4" /><stop
         style="stop-opacity:1;stop-color:#ffe600"
         offset="1"
         id="stop5" /></linearGradient><clipPath
       clipPathUnits="userSpaceOnUse"
       id="clipPath6"><path
         d="M 0,0 28.3468,42.5202 -56.69362,-14.17339 Z"
         transform="matrix(2.6666667,0,0,-2.6666667,397.35733,280.32)"
         id="path6" /></clipPath><clipPath
       clipPathUnits="userSpaceOnUse"
       id="clipPath13"><path
         d="m 0,0 14.17339,-56.69362 -70.86701,42.52023 z"
         transform="matrix(2.6666667,0,0,-2.6666667,397.35733,280.32)"
         id="path13" /></clipPath><linearGradient
       inkscape:collect="always"
       xlink:href="#linearGradient5"
       id="linearGradient27"
       gradientUnits="userSpaceOnUse"
       x1="0"
       y1="0"
       x2="0"
       y2="100.00128" /><linearGradient
       inkscape:collect="always"
       xlink:href="#linearGradient5"
       id="linearGradient28"
       gradientUnits="userSpaceOnUse"
       x1="0"
       y1="0"
       x2="0"
       y2="100.00128" /></defs><g
     inkscape:label="Layer 1"
     inkscape:groupmode="layer"
     id="layer1"
     transform="translate(-282.97398,-43.660762)" /><g
     id="g1"
     inkscape:groupmode="layer"
     inkscape:label="1"
     transform="matrix(0.26458333,0,0,0.26458334,-62.973965,-43.660762)"><path
       id="path1"
       d="M 0,0 28.3468,42.5202 -56.69362,-14.17339 Z"
       style="fill:#d98000;fill-opacity:0.4;fill-rule:nonzero;stroke:none"
       transform="matrix(2.6666667,0,0,-2.6666667,397.35733,280.32)" /><g
       id="g5"
       clip-path="url(#clipPath6)"><path
         d="M 0,0 H 100 V 100 H 0 Z"
         transform="matrix(0,-3.024,-4.536,0,586.3616,393.72427)"
         style="fill:url(#linearGradient27);stroke:none"
         id="path5" /></g><path
       id="path7"
       d="M 0,0 28.3468,42.5202 -56.69362,-14.17339 Z"
       style="fill:none;stroke:#000000;stroke-width:0.3985;stroke-linecap:butt;stroke-linejoin:miter;stroke-miterlimit:10;stroke-dasharray:none;stroke-opacity:1"
       transform="matrix(2.6666667,0,0,-2.6666667,397.35733,280.32)" /><path
       id="path8"
       d="m 0,0 14.17339,-56.69362 -70.86701,42.52023 z"
       style="fill:#d98000;fill-opacity:0.4;fill-rule:nonzero;stroke:none"
       transform="matrix(2.6666667,0,0,-2.6666667,397.35733,280.32)" /><g
       id="g12"
       clip-path="url(#clipPath13)"><path
         d="M 0,0 H 100 V 100 H 0 Z"
         transform="matrix(0,-3.024,-3.7800267,0,529.66501,507.11147)"
         style="fill:url(#linearGradient28);stroke:none"
         id="path12" /></g><path
       id="path14"
       d="m 0,0 14.17339,-56.69362 -70.86701,42.52023 z"
       style="fill:none;stroke:#000000;stroke-width:0.3985;stroke-linecap:butt;stroke-linejoin:miter;stroke-miterlimit:10;stroke-dasharray:none;stroke-opacity:1"
       transform="matrix(2.6666667,0,0,-2.6666667,397.35733,280.32)" /><path
       id="path15"
       d="m 0,0 -59.52846,14.17339 2.83484,-28.34678 z"
       style="fill:#e29900;fill-opacity:0.8;fill-rule:nonzero;stroke:#000000;stroke-width:0.3985;stroke-linecap:butt;stroke-linejoin:miter;stroke-miterlimit:10;stroke-dasharray:none;stroke-opacity:1"
       transform="matrix(2.6666667,0,0,-2.6666667,397.35733,280.32)" /><path
       id="path16"
       d="M -56.69362,-14.17339 27.1792,7.35408"
       style="fill:none;stroke:#000000;stroke-width:1.59404;stroke-linecap:butt;stroke-linejoin:miter;stroke-miterlimit:10;stroke-dasharray:none;stroke-opacity:1"
       transform="matrix(2.6666667,0,0,-2.6666667,397.35733,280.32)" /><path
       id="path17"
       d="M -2.27148,3.02866 C -2.0822,1.8929 0,0.18927 0.56786,0 0,-0.18927 -2.0822,-1.8929 -2.27148,-3.02866"
       style="fill:none;stroke:#000000;stroke-width:1.27522;stroke-linecap:round;stroke-linejoin:round;stroke-miterlimit:10;stroke-dasharray:none;stroke-opacity:1"
       transform="matrix(2.5828533,-0.66288,-0.66288,-2.5828533,469.83515,260.70912)" /><g
       id="g17"
       aria-label="(1,1,1)"
       transform="matrix(2.6666667,0,0,2.6666667,483.928,266.552)"><path
         id="path18"
         d="m 3.2994609,2.390168 c 0,-0.029297 0,-0.052734 -0.1699218,-0.2167969 -1.2480469,-1.25976563 -1.5644532,-3.14062501 -1.5644532,-4.6640625 0,-1.734375 0.375,-3.46875 1.6054688,-4.7109375 0.1289062,-0.1171875 0.1289062,-0.140625 0.1289062,-0.1699219 0,-0.070312 -0.041016,-0.099609 -0.099609,-0.099609 -0.099609,0 -0.9960938,0.6796875 -1.5878907,1.9453125 -0.5039062,1.0957032 -0.62695309,2.1972657 -0.62695309,3.0351563 0,0.7792969 0.11132809,1.98046874 0.65624999,3.10546874 0.5976563,1.22460936 1.4589844,1.87499996 1.5585938,1.87499996 0.058594,0 0.099609,-0.029297 0.099609,-0.09961 z M 6.804832,-6.375457 c 0,-0.2402344 0,-0.2578125 -0.2285156,-0.2578125 -0.6210937,0.6386718 -1.4941406,0.6386718 -1.8164062,0.6386718 v 0.3046875 c 0.1992187,0 0.7910156,0 1.3066406,-0.2578125 v 5.16210942 c 0,0.35742187 -0.029297,0.47460937 -0.9257813,0.47460937 H 4.8185039 V -4.5703125e-4 C 5.1700664,-0.02975391 6.0372539,-0.02975391 6.4356914,-0.02975391 c 0.3984375,0 1.265625,0 1.6113281,0.0292968788 V -0.31100391 H 7.7306133 c -0.8964844,0 -0.9257813,-0.10546875 -0.9257813,-0.47460937 z m 0,0"
         style="fill:#000000;fill-opacity:1;fill-rule:nonzero;stroke:none" /><path
         id="path19"
         d="m 10.877098,-0.01217578 c 0,-0.65625 -0.246094,-1.04296872 -0.638672,-1.04296872 -0.3281252,0 -0.527344,0.24609372 -0.527344,0.52734372 0,0.26953125 0.1992188,0.52734374875 0.527344,0.52734374875 0.123047,0 0.251953,-0.0410156287 0.351562,-0.12890624875 0.0293,-0.0175781 0.04102,-0.0292969 0.04687,-0.0292969 0.01172,0 0.02344,0.0117188 0.02344,0.14648438 0,0.73828125 -0.351563,1.3359375 -0.6796877,1.6640625 -0.1113281,0.1113281 -0.1113281,0.1289063 -0.1113281,0.1582031 0,0.070312 0.052734,0.1113282 0.099609,0.1113282 0.1113288,0 0.9082038,-0.7675782 0.9082038,-1.9335938 z m 0,0"
         style="fill:#000000;fill-opacity:1;fill-rule:nonzero;stroke:none" /><path
         id="path20"
         d="m 16.213523,-6.375457 c 0,-0.2402344 0,-0.2578125 -0.228515,-0.2578125 -0.621094,0.6386718 -1.494141,0.6386718 -1.816406,0.6386718 v 0.3046875 c 0.199218,0 0.791015,0 1.30664,-0.2578125 v 5.16210942 c 0,0.35742187 -0.0293,0.47460937 -0.925781,0.47460937 h -0.322266 v 0.31054687875 c 0.351563,-0.0292968788 1.21875,-0.0292968788 1.617188,-0.0292968788 0.398437,0 1.265625,0 1.611328,0.0292968788 V -0.31100391 h -0.316406 c -0.896485,0 -0.925782,-0.10546875 -0.925782,-0.47460937 z m 0,0"
         style="fill:#000000;fill-opacity:1;fill-rule:nonzero;stroke:none" /><path
         id="path21"
         d="m 20.285789,-0.01217578 c 0,-0.65625 -0.246094,-1.04296872 -0.638672,-1.04296872 -0.328125,0 -0.527344,0.24609372 -0.527344,0.52734372 0,0.26953125 0.199219,0.52734374875 0.527344,0.52734374875 0.123047,0 0.251953,-0.0410156287 0.351563,-0.12890624875 0.0293,-0.0175781 0.04101,-0.0292969 0.04687,-0.0292969 0.01172,0 0.02344,0.0117188 0.02344,0.14648438 0,0.73828125 -0.351562,1.3359375 -0.679687,1.6640625 -0.111328,0.1113281 -0.111328,0.1289063 -0.111328,0.1582031 0,0.070312 0.05273,0.1113282 0.09961,0.1113282 0.111328,0 0.908203,-0.7675782 0.908203,-1.9335938 z m 0,0"
         style="fill:#000000;fill-opacity:1;fill-rule:nonzero;stroke:none" /><path
         id="path22"
         d="m 25.622215,-6.375457 c 0,-0.2402344 0,-0.2578125 -0.228516,-0.2578125 -0.621094,0.6386718 -1.49414,0.6386718 -1.816406,0.6386718 v 0.3046875 c 0.199219,0 0.791016,0 1.306641,-0.2578125 v 5.16210942 c 0,0.35742187 -0.0293,0.47460937 -0.925782,0.47460937 h -0.322265 v 0.31054687875 c 0.351562,-0.0292968788 1.21875,-0.0292968788 1.617187,-0.0292968788 0.398438,0 1.265625,0 1.611328,0.0292968788 V -0.31100391 h -0.316406 c -0.896484,0 -0.925781,-0.10546875 -0.925781,-0.47460937 z m 4.929199,3.8847656 c 0,-0.7792969 -0.105469,-1.9804688 -0.65625,-3.1054688 -0.597656,-1.2246093 -1.453125,-1.875 -1.552734,-1.875 -0.05859,0 -0.09961,0.041016 -0.09961,0.099609 0,0.029297 0,0.052734 0.1875,0.2285156 0.978516,0.984375 1.546875,2.5722657 1.546875,4.6523438 0,1.70507812 -0.36914,3.45703124 -1.605468,4.7109375 -0.128907,0.1171875 -0.128907,0.140625 -0.128907,0.1699219 0,0.058594 0.04102,0.099609 0.09961,0.099609 0.09961,0 0.996093,-0.6796875 1.582031,-1.94531246 0.509766,-1.08984375 0.626953,-2.19726564 0.626953,-3.03515554 z m 0,0"
         style="fill:#000000;fill-opacity:1;fill-rule:nonzero;stroke:none" /></g><path
       id="path23"
       d="m 2.9285234,-6.3742578 c 0,-0.234375 0,-0.2578125 -0.234375,-0.2578125 -0.609375,0.6328125 -1.4882812,0.6328125 -1.80468746,0.6328125 v 0.3164062 c 0.19921876,0 0.78515626,0 1.30078126,-0.2578125 v 5.15625004 c 0,0.3515625 -0.035156,0.48046875 -0.9257813,0.48046875 H 0.94805469 V 7.421875e-4 C 1.2996172,-0.03441406 2.1550859,-0.03441406 2.5535234,-0.03441406 c 0.3984375,0 1.265625,0 1.6171875,0.0351562475 V -0.30394531 H 3.8543047 c -0.9023438,0 -0.9257813,-0.1171875 -0.9257813,-0.48046875 z m 0,0"
       style="fill:#000000;fill-opacity:1;fill-rule:nonzero;stroke:none"
       aria-label="1"
       transform="matrix(1.3333333,0,0,1.3333333,404.17733,936.84667)" /><path
       id="path3"
       style="fill-opacity:0;stroke:#000000;stroke-width:3.27518"
       d="m 210.87136,416.80658 c -5.88122,-16.11847 -15.48423,-30.09944 -27.98167,-39.9385 -0.75813,-0.59691 -1.52385,-1.17559 -2.29709,-1.7374 -11.59851,-8.42727 -24.8496,-12.89112 -38.36763,-12.89167 -17.2926,0.0574 -34.041,7.41255 -47.425292,20.82703"
       transform="matrix(0.81959736,-0.57293993,0.58126219,0.81371633,0,0)"
       sodipodi:nodetypes="csscc" /></g><g
     inkscape:groupmode="layer"
     id="layer2"
     inkscape:label="2"
     transform="translate(-282.97398,-43.660762)"><path
       id="path26"
       style="display:inline;fill-opacity:0;stroke:#ffffff;stroke-width:0.859377;stroke-opacity:1"
       d="m 299.37231,72.461792 c 0.13291,5.172026 1.97251,10.486075 5.20641,15.039823 5.34942,7.469573 13.70846,11.848375 21.57489,11.301794"
       sodipodi:nodetypes="ccc" /></g><g
     inkscape:groupmode="layer"
     id="layer3"
     inkscape:label="3"
     transform="translate(-282.97398,-43.660762)"><path
       id="ellipse3"
       style="fill-opacity:0;stroke:#000000;stroke-width:3.27509"
       d="m 420.14844,370.07616 c 5.04965,-1.80381 9.79788,-4.21425 14.16601,-7.1914 34.0488,-23.8013 37.66902,-76.6687 8.08594,-118.08203 -3.41875,-4.68882 -7.19267,-9.10557 -11.27149,-13.19141 M 299.24414,273.7246 c 0.50697,19.69504 7.52321,39.93085 19.85742,57.27149 20.40284,28.44408 52.28435,45.11847 82.28711,43.0371"
       sodipodi:nodetypes="ccccccc"
       transform="matrix(0.26458333,0,0,0.26458333,220.00001,0)" /><rect
       style="fill:#ffffff;fill-opacity:1;stroke:none;stroke-width:0.0791141;stroke-dasharray:none;stroke-opacity:1"
       id="rect26"
       width="0.9781158"
       height="0.31124714"
       x="309.35608"
       y="151.25713"
       transform="matrix(0.96884032,-0.24768618,0.26137755,0.96523664,0,0)" /><rect
       style="fill:#ffffff;fill-opacity:1;stroke:none;stroke-width:0.0801715;stroke-dasharray:none;stroke-opacity:1"
       id="rect27"
       width="1.0025887"
       height="0.31182051"
       x="307.52704"
       y="152.7645"
       transform="matrix(0.96881606,-0.24778102,0.27394236,0.96174611,0,0)" /></g></svg>
